<svg width="90" height="90" viewBox="0 0 90 90" fill="none" xmlns="http://www.w3.org/2000/svg">
<circle cx="45" cy="45" r="45" fill="white"/>
<path d="M63.0625 31H55.75V28.1875C55.75 27.2734 54.9766 26.5 54.0625 26.5H34.9375C33.9531 26.5 33.25 27.2734 33.25 28.1875V31H25.9375C24.9531 31 24.25 31.7734 24.25 32.6875V36.625C24.25 39.1562 25.7969 41.7578 28.5391 43.7266C30.7891 45.3438 33.4609 46.3281 36.2734 46.6797C38.5234 50.3359 41.125 51.8125 41.125 51.8125V56.875H37.75C35.2188 56.875 33.25 58.3516 33.25 60.8125V61.6562C33.25 62.1484 33.6016 62.5 34.0938 62.5H54.9062C55.3281 62.5 55.75 62.1484 55.75 61.6562V60.8125C55.75 58.3516 53.7109 56.875 51.25 56.875H47.875V51.8125C47.875 51.8125 50.4062 50.3359 52.6562 46.6797C55.4688 46.3281 58.1406 45.3438 60.3906 43.7266C63.1328 41.7578 64.75 39.1562 64.75 36.625V32.6875C64.75 31.7734 63.9766 31 63.0625 31ZM31.2109 40.0703C29.4531 38.875 28.75 37.4688 28.75 36.625V35.5H33.25C33.3203 37.8203 33.6719 39.8594 34.1641 41.6172C33.0391 41.1953 32.0547 40.7031 31.2109 40.0703ZM60.25 36.625C60.25 37.8203 58.9844 39.2266 57.7188 40.0703C56.875 40.7031 55.8906 41.1953 54.7656 41.6172C55.2578 39.8594 55.6094 37.8203 55.6797 35.5H60.25V36.625Z" fill="#FF7000"/>
</svg>
