<svg width="90" height="90" viewBox="0 0 90 90" fill="none" xmlns="http://www.w3.org/2000/svg">
<circle cx="45" cy="45" r="45" fill="white"/>
<path d="M65.0625 30H57.75V27.1875C57.75 26.2734 56.9766 25.5 56.0625 25.5H36.9375C35.9531 25.5 35.25 26.2734 35.25 27.1875V30H27.9375C26.9531 30 26.25 30.7734 26.25 31.6875V35.625C26.25 38.1562 27.7969 40.7578 30.5391 42.7266C32.7891 44.3438 35.4609 45.3281 38.2734 45.6797C40.5234 49.3359 43.125 50.8125 43.125 50.8125V55.875H39.75C37.2188 55.875 35.25 57.3516 35.25 59.8125V60.6562C35.25 61.1484 35.6016 61.5 36.0938 61.5H56.9062C57.3281 61.5 57.75 61.1484 57.75 60.6562V59.8125C57.75 57.3516 55.7109 55.875 53.25 55.875H49.875V50.8125C49.875 50.8125 52.4062 49.3359 54.6562 45.6797C57.4688 45.3281 60.1406 44.3438 62.3906 42.7266C65.1328 40.7578 66.75 38.1562 66.75 35.625V31.6875C66.75 30.7734 65.9766 30 65.0625 30ZM33.2109 39.0703C31.4531 37.875 30.75 36.4688 30.75 35.625V34.5H35.25C35.3203 36.8203 35.6719 38.8594 36.1641 40.6172C35.0391 40.1953 34.0547 39.7031 33.2109 39.0703ZM62.25 35.625C62.25 36.8203 60.9844 38.2266 59.7188 39.0703C58.875 39.7031 57.8906 40.1953 56.7656 40.6172C57.2578 38.8594 57.6094 36.8203 57.6797 34.5H62.25V35.625Z" fill="#FF7000"/>
</svg>
