<svg width="21" height="22" viewBox="0 0 21 22" fill="none" xmlns="http://www.w3.org/2000/svg">
<path d="M10.5 0.953125C4.88086 0.953125 0.328125 5.50586 0.328125 11.125C0.328125 16.7441 4.88086 21.2969 10.5 21.2969C16.1191 21.2969 20.6719 16.7441 20.6719 11.125C20.6719 5.50586 16.1191 0.953125 10.5 0.953125ZM14.2734 13.791L13.4531 14.8164C13.3301 14.9805 13.166 15.1035 12.9199 15.1035C12.7969 15.1035 12.6328 15.0215 12.5508 14.9395L9.80273 12.8887C9.39258 12.6016 9.1875 12.1504 9.1875 11.6172V5.21875C9.1875 4.89062 9.47461 4.5625 9.84375 4.5625H11.1562C11.4844 4.5625 11.8125 4.89062 11.8125 5.21875V11.125L14.1914 12.8887C14.3145 13.0117 14.4375 13.1758 14.4375 13.3809C14.4375 13.5449 14.3555 13.709 14.2734 13.791Z" fill="white"/>
</svg>
