<svg width="36" height="33" viewBox="0 0 36 33" fill="none" xmlns="http://www.w3.org/2000/svg">
<path d="M2.25 30C2.25 31.2656 3.23438 32.25 4.5 32.25H15.75V21H2.25V30ZM20.25 32.25H31.5C32.6953 32.25 33.75 31.2656 33.75 30V21H20.25V32.25ZM33.75 9.75H30.7266C31.2188 8.90625 31.5 7.99219 31.5 6.9375C31.5 3.5625 28.6875 0.75 25.3125 0.75C22.3594 0.75 20.4609 2.29688 18.0703 5.60156C15.6094 2.29688 13.7109 0.75 10.8281 0.75C7.38281 0.75 4.64062 3.5625 4.64062 6.9375C4.64062 7.99219 4.85156 8.90625 5.34375 9.75H2.25C0.984375 9.75 0 10.8047 0 12V17.625C0 18.2578 0.492188 18.75 1.125 18.75H34.875C35.4375 18.75 36 18.2578 36 17.625V12C36 10.8047 34.9453 9.75 33.75 9.75ZM10.7578 9.75C9.21094 9.75 7.94531 8.55469 7.94531 6.9375C7.94531 5.39062 9.21094 4.125 10.7578 4.125C12.1641 4.125 13.2188 4.40625 16.875 9.75H10.7578ZM25.3125 9.75H19.1953C22.8516 4.40625 23.8359 4.125 25.3125 4.125C26.8594 4.125 28.125 5.39062 28.125 6.9375C28.125 8.55469 26.8594 9.75 25.3125 9.75Z" fill="white"/>
</svg>
