<svg width="21" height="16" viewBox="0 0 21 16" fill="none" xmlns="http://www.w3.org/2000/svg">
<path d="M20.5898 5.45898C19.6465 6.19727 18.457 7.09961 14.2734 10.1348C13.4531 10.75 11.9355 12.1035 10.5 12.1035C9.02344 12.1035 7.54688 10.75 6.68555 10.1348C2.50195 7.09961 1.3125 6.19727 0.369141 5.45898C0.205078 5.33594 0 5.45898 0 5.66406V14.0312C0 15.1387 0.861328 16 1.96875 16H19.0312C20.0977 16 21 15.1387 21 14.0312V5.66406C21 5.45898 20.7539 5.33594 20.5898 5.45898ZM10.5 10.75C11.4434 10.791 12.7969 9.56055 13.4941 9.06836C18.9492 5.13086 19.3594 4.76172 20.5898 3.77734C20.8359 3.61328 21 3.32617 21 2.99805V2.21875C21 1.15234 20.0977 0.25 19.0312 0.25H1.96875C0.861328 0.25 0 1.15234 0 2.21875V2.99805C0 3.32617 0.123047 3.61328 0.369141 3.77734C1.59961 4.76172 2.00977 5.13086 7.46484 9.06836C8.16211 9.56055 9.51562 10.791 10.5 10.75Z" fill="white"/>
</svg>
