<svg width="18" height="14" viewBox="0 0 18 14" fill="none" xmlns="http://www.w3.org/2000/svg">
<path d="M17.5 0C17.4375 0 17.375 0.03125 17.3125 0.0625L12 2L6.625 0.125C6.40625 0.0625 6.1875 0.03125 5.96875 0C5.78125 0 5.5625 0.0625 5.34375 0.125L0.625 1.75C0.25 1.90625 0 2.28125 0 2.6875V13.5C0 13.8125 0.21875 14 0.46875 14C0.53125 14 0.59375 14 0.65625 13.9688L6 12L11.375 13.9062C11.5625 13.9688 11.7812 14 12 14C12.2188 14 12.4062 13.9688 12.625 13.9062L17.3438 12.2812C17.7188 12.125 18 11.75 18 11.3438V0.53125C18 0.21875 17.75 0 17.5 0ZM7 1.84375L11 3.25V12.1875L7 10.7812V1.84375ZM1.5 12.0938V3.0625L5.5 1.65625V10.5938H5.46875L1.5 12.0938ZM16.5 10.9688L12.5 12.375V3.4375L16.5 1.9375V10.9688Z" fill="#FF7000"/>
</svg>
