<svg width="32" height="37" viewBox="0 0 32 37" fill="none" xmlns="http://www.w3.org/2000/svg">
<path d="M16 18.5C20.9219 18.5 25 14.4922 25 9.5C25 4.57812 20.9219 0.5 16 0.5C11.0078 0.5 7 4.57812 7 9.5C7 14.4922 11.0078 18.5 16 18.5ZM22.6797 20.8203L19.375 34.25L17.125 24.6875L19.375 20.75H12.625L14.875 24.6875L12.625 34.25L9.25 20.8203C4.1875 21.0312 0.25 25.1797 0.25 30.2422V33.125C0.25 35.0234 1.72656 36.5 3.625 36.5H28.375C30.2031 36.5 31.75 35.0234 31.75 33.125V30.2422C31.75 25.1797 27.7422 21.0312 22.6797 20.8203Z" fill="white"/>
</svg>
