<svg width="21" height="22" viewBox="0 0 21 22" fill="none" xmlns="http://www.w3.org/2000/svg">
<path d="M20.3848 15.4727L15.791 13.5039C15.668 13.4629 15.5449 13.4219 15.3809 13.4219C15.0938 13.4219 14.8066 13.5859 14.6426 13.791L12.5918 16.293C9.39258 14.7754 6.84961 12.2324 5.33203 9.0332L7.83398 6.98242C8.03906 6.81836 8.20312 6.53125 8.20312 6.20312C8.20312 6.08008 8.16211 5.95703 8.12109 5.83398L6.15234 1.24023C5.98828 0.871094 5.61914 0.625 5.20898 0.625C5.16797 0.625 5.08594 0.666016 5.00391 0.666016L0.738281 1.65039C0.287109 1.77344 0 2.14258 0 2.59375C0 13.1348 8.49023 21.625 19.0312 21.625C19.4824 21.625 19.8516 21.3379 19.9746 20.8867L20.959 16.6211C20.959 16.5391 20.959 16.457 20.959 16.416C20.959 16.0059 20.7129 15.6367 20.3848 15.4727Z" fill="white"/>
</svg>
