<svg width="570" height="343" viewBox="0 0 570 343" fill="none" xmlns="http://www.w3.org/2000/svg">
<rect width="570" height="343" fill="#333333"/>
<path d="M317.625 150.625C316.875 147.625 314.5 145.25 311.625 144.5C306.25 143 285 143 285 143C285 143 263.625 143 258.25 144.5C255.375 145.25 253 147.625 252.25 150.625C250.75 155.875 250.75 167.125 250.75 167.125C250.75 167.125 250.75 178.25 252.25 183.625C253 186.625 255.375 188.875 258.25 189.625C263.625 191 285 191 285 191C285 191 306.25 191 311.625 189.625C314.5 188.875 316.875 186.625 317.625 183.625C319.125 178.25 319.125 167.125 319.125 167.125C319.125 167.125 319.125 155.875 317.625 150.625ZM278 177.25V157L295.75 167.125L278 177.25Z" fill="#FF0000"/>
</svg>
